{
  "asset": {
    "generator": "Khronos glTF Blender I/O v3.3.32",
    "version": "2.0"
  },
  "scene": 0,
  "scenes": [
    {
      "name": "Scene",
      "nodes": [
        0
      ]
    }
  ],
  "nodes": [
    {
      "mesh": 0,
      "name": "rusted_spade_01"
    }
  ],
  "materials": [
    {
      "doubleSided": true,
      "name": "rusted_spade_01",
      "normalTexture": {
        "index": 0
      },
      "pbrMetallicRoughness": {
        "baseColorTexture": {
          "index": 1
        },
        "metallicRoughnessTexture": {
          "index": 2
        }
      }
    }
  ],
  "meshes": [
    {
      "name": "Cylinder.001",
      "primitives": [
        {
          "attributes": {
            "POSITION": 0,
            "NORMAL": 1,
            "TEXCOORD_0": 2
          },
          "indices": 3,
          "material": 0
        }
      ]
    }
  ],
  "textures": [
    {
      "sampler": 0,
      "source": 0
    },
    {
      "sampler": 0,
      "source": 1
    },
    {
      "sampler": 0,
      "source": 2
    }
  ],
  "images": [
    {
      "mimeType": "image/jpeg",
      "name": "rusted_spade_01_nor_gl",
      "uri": "textures/rusted_spade_01_nor_gl_1k.jpg"
    },
    {
      "mimeType": "image/jpeg",
      "name": "rusted_spade_01_diff",
      "uri": "textures/rusted_spade_01_diff_1k.jpg"
    },
    {
      "mimeType": "image/jpeg",
      "name": "rusted_spade_01_metal-rusted_spade_01_rough",
      "uri": "textures/rusted_spade_01_arm_1k.jpg"
    }
  ],
  "accessors": [
    {
      "bufferView": 0,
      "componentType": 5126,
      "count": 6639,
      "max": [
        0.08405742049217224,
        0.5977030396461487,
        0.022568460553884506
      ],
      "min": [
        -0.08405739068984985,
        -0.5032017230987549,
        -0.022995803505182266
      ],
      "type": "VEC3"
    },
    {
      "bufferView": 1,
      "componentType": 5126,
      "count": 6639,
      "type": "VEC3"
    },
    {
      "bufferView": 2,
      "componentType": 5126,
      "count": 6639,
      "type": "VEC2"
    },
    {
      "bufferView": 3,
      "componentType": 5123,
      "count": 34308,
      "type": "SCALAR"
    }
  ],
  "bufferViews": [
    {
      "buffer": 0,
      "byteLength": 79668,
      "byteOffset": 0,
      "target": 34962
    },
    {
      "buffer": 0,
      "byteLength": 79668,
      "byteOffset": 79668,
      "target": 34962
    },
    {
      "buffer": 0,
      "byteLength": 53112,
      "byteOffset": 159336,
      "target": 34962
    },
    {
      "buffer": 0,
      "byteLength": 68616,
      "byteOffset": 212448,
      "target": 34963
    }
  ],
  "samplers": [
    {
      "magFilter": 9729,
      "minFilter": 9987
    }
  ],
  "buffers": [
    {
      "byteLength": 281064,
      "uri": "rusted_spade_01.bin"
    }
  ]
}