{
	"asset":{
		"generator":"Khronos glTF Blender I/O v4.1.62",
		"version":"2.0"
	},
	"scene":0,
	"scenes":[
		{
			"name":"Scene",
			"nodes":[
				18
			]
		}
	],
	"nodes":[
		{
			"name":"Bone.008",
			"rotation":[
				0,
				0,
				4.764414778704378e-44,
				1
			],
			"translation":[
				11.999999046325684,
				16.800018310546875,
				4.799999713897705
			]
		},
		{
			"name":"Bone.009",
			"rotation":[
				1.419158568438661e-08,
				0,
				4.764414778704378e-44,
				1
			],
			"translation":[
				-7.152557373046875e-07,
				16.800018310546875,
				-14.400001525878906
			]
		},
		{
			"name":"Bone.017",
			"rotation":[
				0,
				0,
				4.764414778704378e-44,
				1
			],
			"translation":[
				-14.40000057220459,
				16.800018310546875,
				2.3999993801116943
			]
		},
		{
			"children":[
				0,
				1,
				2
			],
			"name":"Bone.007",
			"rotation":[
				-7.105427357601002e-15,
				0,
				4.764414778704378e-44,
				1
			],
			"translation":[
				0,
				28.79998779296875,
				0
			]
		},
		{
			"children":[
				3
			],
			"name":"Bone.006",
			"rotation":[
				-3.552713678800501e-15,
				0,
				4.764414778704378e-44,
				1
			],
			"translation":[
				0,
				28.800003051757812,
				0
			]
		},
		{
			"children":[
				4
			],
			"name":"Bone.005",
			"rotation":[
				0,
				0,
				4.764414778704378e-44,
				1
			],
			"translation":[
				0,
				28.800003051757812,
				0
			]
		},
		{
			"children":[
				5
			],
			"name":"Bone.004",
			"rotation":[
				-1.7763568394002505e-15,
				0,
				4.764414778704378e-44,
				1
			],
			"translation":[
				0,
				28.800010681152344,
				0
			]
		},
		{
			"children":[
				6
			],
			"name":"Bone.003",
			"rotation":[
				1.7763568394002505e-15,
				0,
				4.764414778704378e-44,
				1
			],
			"translation":[
				0,
				28.800003051757812,
				0
			]
		},
		{
			"children":[
				7
			],
			"name":"Bone.002",
			"rotation":[
				1.7763568394002505e-15,
				0,
				4.764414778704378e-44,
				1
			],
			"translation":[
				0,
				28.79999542236328,
				0
			]
		},
		{
			"children":[
				8
			],
			"name":"Bone.001",
			"rotation":[
				-1.7763568394002505e-15,
				0,
				4.764414778704378e-44,
				1
			],
			"translation":[
				0,
				33.599998474121094,
				5.684341886080802e-14
			]
		},
		{
			"children":[
				9
			],
			"name":"Bone.016",
			"rotation":[
				0,
				0,
				5.048709793414476e-29,
				1
			],
			"translation":[
				2.8698592549372254e-42,
				43.19999694824219,
				1.1368683772161603e-13
			]
		},
		{
			"children":[
				10
			],
			"name":"Bone.015",
			"rotation":[
				-1.7763568394002505e-15,
				-1.1920927533992653e-07,
				-2.1175826205712405e-22,
				1
			],
			"translation":[
				1.0842020432385337e-19,
				35.99999237060547,
				-4.547473508864641e-13
			]
		},
		{
			"children":[
				11
			],
			"name":"Bone.014",
			"rotation":[
				7.105427357601002e-15,
				1.1920927533992653e-07,
				8.470329472543003e-22,
				1
			],
			"translation":[
				0,
				38.40000915527344,
				4.547473508864641e-13
			]
		},
		{
			"children":[
				12
			],
			"name":"Bone.013",
			"rotation":[
				-8.881784197001252e-15,
				0,
				0,
				1
			],
			"translation":[
				0,
				31.20001220703125,
				0
			]
		},
		{
			"children":[
				13
			],
			"name":"Bone.012",
			"rotation":[
				2.3092638912203256e-14,
				0,
				0,
				1
			],
			"translation":[
				0,
				19.199981689453125,
				0
			]
		},
		{
			"children":[
				14
			],
			"name":"Bone.011",
			"rotation":[
				-3.019806626980426e-14,
				0,
				0,
				1
			],
			"translation":[
				0,
				33.600006103515625,
				0
			]
		},
		{
			"children":[
				15
			],
			"name":"Bone.010",
			"rotation":[
				-0.7071067690849304,
				0,
				0,
				0.7071067690849304
			],
			"translation":[
				0,
				9.441659130970947e-06,
				216
			]
		},
		{
			"mesh":0,
			"name":"Cylinder.004",
			"skin":0
		},
		{
			"children":[
				17,
				16
			],
			"name":"Armature"
		}
	],
	"materials":[
		{
			"doubleSided":true,
			"name":"baked",
			"normalTexture":{
				"index":0
			},
			"pbrMetallicRoughness":{
				"baseColorTexture":{
					"index":1
				},
				"metallicFactor":0,
				"metallicRoughnessTexture":{
					"index":2
				}
			}
		}
	],
	"meshes":[
		{
			"name":"Cylinder.005",
			"primitives":[
				{
					"attributes":{
						"POSITION":0,
						"NORMAL":1,
						"TEXCOORD_0":2,
						"JOINTS_0":3,
						"WEIGHTS_0":4
					},
					"indices":5,
					"material":0
				}
			]
		}
	],
	"textures":[
		{
			"sampler":0,
			"source":0
		},
		{
			"sampler":0,
			"source":1
		},
		{
			"sampler":0,
			"source":2
		}
	],
	"images":[
		{
			"mimeType":"image/png",
			"name":"sandworm_normal_1",
			"uri":"sandworm_normal_1.png"
		},
		{
			"mimeType":"image/png",
			"name":"sandworm_albedo_1",
			"uri":"sandworm_albedo_1.png"
		},
		{
			"mimeType":"image/png",
			"name":"sandworm_roughness_1",
			"uri":"sandworm_roughness_1.png"
		}
	],
	"skins":[
		{
			"inverseBindMatrices":6,
			"joints":[
				16,
				15,
				14,
				13,
				12,
				11,
				10,
				9,
				8,
				7,
				6,
				5,
				4,
				3,
				0,
				1,
				2
			],
			"name":"Armature"
		}
	],
	"accessors":[
		{
			"bufferView":0,
			"componentType":5126,
			"count":17308,
			"max":[
				29.17193603515625,
				28.074649810791016,
				218.28273010253906
			],
			"min":[
				-28.52090835571289,
				-28.76761817932129,
				-253.9600830078125
			],
			"type":"VEC3"
		},
		{
			"bufferView":1,
			"componentType":5126,
			"count":17308,
			"type":"VEC3"
		},
		{
			"bufferView":2,
			"componentType":5126,
			"count":17308,
			"type":"VEC2"
		},
		{
			"bufferView":3,
			"componentType":5121,
			"count":17308,
			"type":"VEC4"
		},
		{
			"bufferView":4,
			"componentType":5126,
			"count":17308,
			"type":"VEC4"
		},
		{
			"bufferView":5,
			"componentType":5123,
			"count":101268,
			"type":"SCALAR"
		},
		{
			"bufferView":6,
			"componentType":5126,
			"count":17,
			"type":"MAT4"
		}
	],
	"bufferViews":[
		{
			"buffer":0,
			"byteLength":207696,
			"byteOffset":0,
			"target":34962
		},
		{
			"buffer":0,
			"byteLength":207696,
			"byteOffset":207696,
			"target":34962
		},
		{
			"buffer":0,
			"byteLength":138464,
			"byteOffset":415392,
			"target":34962
		},
		{
			"buffer":0,
			"byteLength":69232,
			"byteOffset":553856,
			"target":34962
		},
		{
			"buffer":0,
			"byteLength":276928,
			"byteOffset":623088,
			"target":34962
		},
		{
			"buffer":0,
			"byteLength":202536,
			"byteOffset":900016,
			"target":34963
		},
		{
			"buffer":0,
			"byteLength":1088,
			"byteOffset":1102552
		}
	],
	"samplers":[
		{
			"magFilter":9729,
			"minFilter":9987
		}
	],
	"buffers":[
		{
			"byteLength":1103640,
			"uri":"sandworm%20v3.2.bin"
		}
	]
}
