{
	"asset":{
		"generator":"Khronos glTF Blender I/O v4.1.62",
		"version":"2.0"
	},
	"scene":0,
	"scenes":[
		{
			"name":"Scene",
			"nodes":[
				0
			]
		}
	],
	"nodes":[
		{
			"mesh":0,
			"name":"Plane"
		}
	],
	"materials":[
		{
			"doubleSided":true,
			"name":"checkerboard",
			"pbrMetallicRoughness":{
				"metallicFactor":0,
				"roughnessFactor":0.5
			}
		}
	],
	"meshes":[
		{
			"name":"Plane",
			"primitives":[
				{
					"attributes":{
						"POSITION":0,
						"NORMAL":1
					},
					"indices":2,
					"material":0
				}
			]
		}
	],
	"accessors":[
		{
			"bufferView":0,
			"componentType":5126,
			"count":99838,
			"max":[
				2534.306396484375,
				2676.143310546875,
				2499.663818359375
			],
			"min":[
				-2499.87841796875,
				529.1659545898438,
				-2534.5869140625
			],
			"type":"VEC3"
		},
		{
			"bufferView":1,
			"componentType":5126,
			"count":99838,
			"type":"VEC3"
		},
		{
			"bufferView":2,
			"componentType":5125,
			"count":99846,
			"type":"SCALAR"
		}
	],
	"bufferViews":[
		{
			"buffer":0,
			"byteLength":1198056,
			"byteOffset":0,
			"target":34962
		},
		{
			"buffer":0,
			"byteLength":1198056,
			"byteOffset":1198056,
			"target":34962
		},
		{
			"buffer":0,
			"byteLength":399384,
			"byteOffset":2396112,
			"target":34963
		}
	],
	"buffers":[
		{
			"byteLength":2795496,
			"uri":"desert%20v0.3.bin"
		}
	]
}
