{
	"asset":{
		"generator":"Khronos glTF Blender I/O v4.0.44",
		"version":"2.0"
	},
	"scene":0,
	"scenes":[
		{
			"name":"Scene",
			"nodes":[
				18
			]
		}
	],
	"nodes":[
		{
			"name":"Bone.008",
			"translation":[
				0.4999999701976776,
				0.7000007629394531,
				0.20000000298023224
			]
		},
		{
			"name":"Bone.009",
			"translation":[
				-2.9802322387695312e-08,
				0.7000007629394531,
				-0.6000000238418579
			]
		},
		{
			"name":"Bone.017",
			"translation":[
				-0.6000000238418579,
				0.7000007629394531,
				0.09999997168779373
			]
		},
		{
			"children":[
				0,
				1,
				2
			],
			"name":"Bone.007",
			"translation":[
				0,
				1.200000286102295,
				0
			]
		},
		{
			"children":[
				3
			],
			"name":"Bone.006",
			"translation":[
				0,
				1.200000286102295,
				0
			]
		},
		{
			"children":[
				4
			],
			"name":"Bone.005",
			"translation":[
				0,
				1.200000286102295,
				0
			]
		},
		{
			"children":[
				5
			],
			"name":"Bone.004",
			"translation":[
				0,
				1.200000524520874,
				0
			]
		},
		{
			"children":[
				6
			],
			"name":"Bone.003",
			"translation":[
				0,
				1.2000004053115845,
				0
			]
		},
		{
			"children":[
				7
			],
			"name":"Bone.002",
			"translation":[
				0,
				1.2000000476837158,
				0
			]
		},
		{
			"children":[
				8
			],
			"name":"Bone.001",
			"translation":[
				0,
				1.4000000953674316,
				0
			]
		},
		{
			"children":[
				9
			],
			"name":"Bone.016",
			"translation":[
				0,
				1.8000001907348633,
				0
			]
		},
		{
			"children":[
				10
			],
			"name":"Bone.015",
			"rotation":[
				0,
				-1.1920927533992653e-07,
				0,
				1
			],
			"translation":[
				0,
				1.4999995231628418,
				0
			]
		},
		{
			"children":[
				11
			],
			"name":"Bone.014",
			"rotation":[
				0,
				1.1920927533992653e-07,
				0,
				1
			],
			"scale":[
				1,
				0.9999999403953552,
				1
			],
			"translation":[
				0,
				1.6000003814697266,
				0
			]
		},
		{
			"children":[
				12
			],
			"name":"Bone.013",
			"translation":[
				0,
				1.3000001907348633,
				0
			]
		},
		{
			"children":[
				13
			],
			"name":"Bone.012",
			"translation":[
				0,
				0.7999997138977051,
				0
			]
		},
		{
			"children":[
				14
			],
			"name":"Bone.011",
			"translation":[
				0,
				1.4000000953674316,
				0
			]
		},
		{
			"children":[
				15
			],
			"name":"Bone.010",
			"translation":[
				0,
				-9,
				0
			]
		},
		{
			"mesh":0,
			"name":"Cylinder.004",
			"skin":0
		},
		{
			"children":[
				17,
				16
			],
			"name":"Armature"
		}
	],
	"materials":[
		{
			"doubleSided":true,
			"name":"baked",
			"pbrMetallicRoughness":{
				"baseColorTexture":{
					"index":0
				},
				"metallicFactor":0,
				"metallicRoughnessTexture":{
					"index":1
				}
			}
		}
	],
	"meshes":[
		{
			"name":"Cylinder.005",
			"primitives":[
				{
					"attributes":{
						"POSITION":0,
						"NORMAL":1,
						"TEXCOORD_0":2,
						"JOINTS_0":3,
						"WEIGHTS_0":4
					},
					"indices":5,
					"material":0
				}
			]
		}
	],
	"textures":[
		{
			"sampler":0,
			"source":0
		},
		{
			"sampler":0,
			"source":1
		}
	],
	"images":[
		{
			"mimeType":"image/png",
			"name":"sandworm_albedo_1",
			"uri":"sandworm_albedo_1.png"
		},
		{
			"mimeType":"image/png",
			"name":"sandworm_roughness_1",
			"uri":"sandworm_roughness_1.png"
		}
	],
	"skins":[
		{
			"inverseBindMatrices":6,
			"joints":[
				16,
				15,
				14,
				13,
				12,
				11,
				10,
				9,
				8,
				7,
				6,
				5,
				4,
				3,
				0,
				1,
				2
			],
			"name":"Armature"
		}
	],
	"accessors":[
		{
			"bufferView":0,
			"componentType":5126,
			"count":17308,
			"max":[
				1.215497374534607,
				10.581669807434082,
				1.169777274131775
			],
			"min":[
				-1.188371181488037,
				-9.095113754272461,
				-1.1986507177352905
			],
			"type":"VEC3"
		},
		{
			"bufferView":1,
			"componentType":5126,
			"count":17308,
			"type":"VEC3"
		},
		{
			"bufferView":2,
			"componentType":5126,
			"count":17308,
			"type":"VEC2"
		},
		{
			"bufferView":3,
			"componentType":5121,
			"count":17308,
			"type":"VEC4"
		},
		{
			"bufferView":4,
			"componentType":5126,
			"count":17308,
			"type":"VEC4"
		},
		{
			"bufferView":5,
			"componentType":5123,
			"count":101268,
			"type":"SCALAR"
		},
		{
			"bufferView":6,
			"componentType":5126,
			"count":17,
			"type":"MAT4"
		}
	],
	"bufferViews":[
		{
			"buffer":0,
			"byteLength":207696,
			"byteOffset":0,
			"target":34962
		},
		{
			"buffer":0,
			"byteLength":207696,
			"byteOffset":207696,
			"target":34962
		},
		{
			"buffer":0,
			"byteLength":138464,
			"byteOffset":415392,
			"target":34962
		},
		{
			"buffer":0,
			"byteLength":69232,
			"byteOffset":553856,
			"target":34962
		},
		{
			"buffer":0,
			"byteLength":276928,
			"byteOffset":623088,
			"target":34962
		},
		{
			"buffer":0,
			"byteLength":202536,
			"byteOffset":900016,
			"target":34963
		},
		{
			"buffer":0,
			"byteLength":1088,
			"byteOffset":1102552
		}
	],
	"samplers":[
		{
			"magFilter":9729,
			"minFilter":9987
		}
	],
	"buffers":[
		{
			"byteLength":1103640,
			"uri":"sandworm.bin"
		}
	]
}
