{
	"asset":{
		"generator":"Khronos glTF Blender I/O v4.0.44",
		"version":"2.0"
	},
	"scene":0,
	"scenes":[
		{
			"name":"Scene",
			"nodes":[
				18
			]
		}
	],
	"nodes":[
		{
			"name":"Bone.008",
			"rotation":[
				0,
				0,
				4.764414778704378e-44,
				1
			],
			"translation":[
				2.999999761581421,
				4.200004577636719,
				1.1999999284744263
			]
		},
		{
			"name":"Bone.009",
			"rotation":[
				1.419158568438661e-08,
				0,
				4.764414778704378e-44,
				1
			],
			"translation":[
				-1.7881393432617188e-07,
				4.200004577636719,
				-3.6000003814697266
			]
		},
		{
			"name":"Bone.017",
			"rotation":[
				0,
				0,
				4.764414778704378e-44,
				1
			],
			"translation":[
				-3.6000001430511475,
				4.200004577636719,
				0.5999998450279236
			]
		},
		{
			"children":[
				0,
				1,
				2
			],
			"name":"Bone.007",
			"rotation":[
				-7.105427357601002e-15,
				0,
				4.764414778704378e-44,
				1
			],
			"translation":[
				0,
				7.1999969482421875,
				0
			]
		},
		{
			"children":[
				3
			],
			"name":"Bone.006",
			"rotation":[
				-3.552713678800501e-15,
				0,
				4.764414778704378e-44,
				1
			],
			"translation":[
				0,
				7.200000762939453,
				0
			]
		},
		{
			"children":[
				4
			],
			"name":"Bone.005",
			"rotation":[
				0,
				0,
				4.764414778704378e-44,
				1
			],
			"translation":[
				0,
				7.200000762939453,
				0
			]
		},
		{
			"children":[
				5
			],
			"name":"Bone.004",
			"rotation":[
				-1.7763568394002505e-15,
				0,
				4.764414778704378e-44,
				1
			],
			"translation":[
				0,
				7.200002670288086,
				0
			]
		},
		{
			"children":[
				6
			],
			"name":"Bone.003",
			"rotation":[
				1.7763568394002505e-15,
				0,
				4.764414778704378e-44,
				1
			],
			"translation":[
				0,
				7.200000762939453,
				0
			]
		},
		{
			"children":[
				7
			],
			"name":"Bone.002",
			"rotation":[
				1.7763568394002505e-15,
				0,
				4.764414778704378e-44,
				1
			],
			"translation":[
				0,
				7.19999885559082,
				0
			]
		},
		{
			"children":[
				8
			],
			"name":"Bone.001",
			"rotation":[
				-1.7763568394002505e-15,
				0,
				4.764414778704378e-44,
				1
			],
			"translation":[
				0,
				8.399999618530273,
				1.4210854715202004e-14
			]
		},
		{
			"children":[
				9
			],
			"name":"Bone.016",
			"rotation":[
				0,
				0,
				5.048709793414476e-29,
				1
			],
			"translation":[
				7.174648137343064e-43,
				10.799999237060547,
				2.842170943040401e-14
			]
		},
		{
			"children":[
				10
			],
			"name":"Bone.015",
			"rotation":[
				-1.7763568394002505e-15,
				-1.1920927533992653e-07,
				-2.1175826205712405e-22,
				1
			],
			"translation":[
				2.7105051080963343e-20,
				8.999998092651367,
				-1.1368683772161603e-13
			]
		},
		{
			"children":[
				11
			],
			"name":"Bone.014",
			"rotation":[
				7.105427357601002e-15,
				1.1920927533992653e-07,
				8.470329472543003e-22,
				1
			],
			"translation":[
				0,
				9.60000228881836,
				1.1368683772161603e-13
			]
		},
		{
			"children":[
				12
			],
			"name":"Bone.013",
			"rotation":[
				-8.881784197001252e-15,
				0,
				0,
				1
			],
			"translation":[
				0,
				7.8000030517578125,
				0
			]
		},
		{
			"children":[
				13
			],
			"name":"Bone.012",
			"rotation":[
				2.3092638912203256e-14,
				0,
				0,
				1
			],
			"translation":[
				0,
				4.799995422363281,
				0
			]
		},
		{
			"children":[
				14
			],
			"name":"Bone.011",
			"rotation":[
				-3.019806626980426e-14,
				0,
				0,
				1
			],
			"translation":[
				0,
				8.400001525878906,
				0
			]
		},
		{
			"children":[
				15
			],
			"name":"Bone.010",
			"rotation":[
				-0.7071067690849304,
				0,
				0,
				0.7071067690849304
			],
			"translation":[
				0,
				2.360414782742737e-06,
				54
			]
		},
		{
			"mesh":0,
			"name":"Cylinder.004",
			"skin":0
		},
		{
			"children":[
				17,
				16
			],
			"name":"Armature"
		}
	],
	"materials":[
		{
			"doubleSided":true,
			"name":"baked",
			"normalTexture":{
				"index":0
			},
			"pbrMetallicRoughness":{
				"baseColorTexture":{
					"index":1
				},
				"metallicFactor":0,
				"metallicRoughnessTexture":{
					"index":2
				}
			}
		}
	],
	"meshes":[
		{
			"name":"Cylinder.005",
			"primitives":[
				{
					"attributes":{
						"POSITION":0,
						"NORMAL":1,
						"TEXCOORD_0":2,
						"JOINTS_0":3,
						"WEIGHTS_0":4
					},
					"indices":5,
					"material":0
				}
			]
		}
	],
	"textures":[
		{
			"sampler":0,
			"source":0
		},
		{
			"sampler":0,
			"source":1
		},
		{
			"sampler":0,
			"source":2
		}
	],
	"images":[
		{
			"mimeType":"image/png",
			"name":"sandworm_normal_1",
			"uri":"sandworm_normal_1.png"
		},
		{
			"mimeType":"image/png",
			"name":"sandworm_albedo_1",
			"uri":"sandworm_albedo_1.png"
		},
		{
			"mimeType":"image/png",
			"name":"sandworm_roughness_1",
			"uri":"sandworm_roughness_1.png"
		}
	],
	"skins":[
		{
			"inverseBindMatrices":6,
			"joints":[
				16,
				15,
				14,
				13,
				12,
				11,
				10,
				9,
				8,
				7,
				6,
				5,
				4,
				3,
				0,
				1,
				2
			],
			"name":"Armature"
		}
	],
	"accessors":[
		{
			"bufferView":0,
			"componentType":5126,
			"count":17308,
			"max":[
				7.2929840087890625,
				7.018662452697754,
				54.570682525634766
			],
			"min":[
				-7.130227088928223,
				-7.191904544830322,
				-63.490020751953125
			],
			"type":"VEC3"
		},
		{
			"bufferView":1,
			"componentType":5126,
			"count":17308,
			"type":"VEC3"
		},
		{
			"bufferView":2,
			"componentType":5126,
			"count":17308,
			"type":"VEC2"
		},
		{
			"bufferView":3,
			"componentType":5121,
			"count":17308,
			"type":"VEC4"
		},
		{
			"bufferView":4,
			"componentType":5126,
			"count":17308,
			"type":"VEC4"
		},
		{
			"bufferView":5,
			"componentType":5123,
			"count":101268,
			"type":"SCALAR"
		},
		{
			"bufferView":6,
			"componentType":5126,
			"count":17,
			"type":"MAT4"
		}
	],
	"bufferViews":[
		{
			"buffer":0,
			"byteLength":207696,
			"byteOffset":0,
			"target":34962
		},
		{
			"buffer":0,
			"byteLength":207696,
			"byteOffset":207696,
			"target":34962
		},
		{
			"buffer":0,
			"byteLength":138464,
			"byteOffset":415392,
			"target":34962
		},
		{
			"buffer":0,
			"byteLength":69232,
			"byteOffset":553856,
			"target":34962
		},
		{
			"buffer":0,
			"byteLength":276928,
			"byteOffset":623088,
			"target":34962
		},
		{
			"buffer":0,
			"byteLength":202536,
			"byteOffset":900016,
			"target":34963
		},
		{
			"buffer":0,
			"byteLength":1088,
			"byteOffset":1102552
		}
	],
	"samplers":[
		{
			"magFilter":9729,
			"minFilter":9987
		}
	],
	"buffers":[
		{
			"byteLength":1103640,
			"uri":"sandworm%20v3.1.bin"
		}
	]
}
