{"accessors":[{"bufferView":0,"byteOffset":0,"componentType":5126,"count":17,"max":[1,0,0,0,0,1,0,0,0,0,1,0,0.6,9,0.6,1],"min":[1,0,0,0,0,1,0,0,0,0,1,0,-0.5,-8.7,-0.2,1],"normalized":false,"type":"MAT4"},{"bufferView":1,"byteOffset":0,"componentType":5126,"count":22498,"max":[1.215497,10.58167,1.169777],"min":[-1.188371,-9.095114,-1.198651],"normalized":false,"type":"VEC3"},{"bufferView":2,"byteOffset":0,"componentType":5126,"count":22498,"max":[0.999988,0.988296,0.999977,1],"min":[-0.999993,-0.985722,-0.999944,1],"normalized":false,"type":"VEC4"},{"bufferView":3,"byteOffset":0,"componentType":5126,"count":22498,"max":[0.999956,0.998173,0.999973],"min":[-0.999992,-0.999713,-0.999998],"normalized":false,"type":"VEC3"},{"bufferView":4,"byteOffset":0,"componentType":5126,"count":22498,"max":[0.868167,0.980552],"min":[0.100412,0.018248],"normalized":false,"type":"VEC2"},{"bufferView":5,"byteOffset":0,"componentType":5123,"count":22498,"max":[16,16,16,16],"min":[0,0,0,0],"normalized":false,"type":"VEC4"},{"bufferView":6,"byteOffset":0,"componentType":5126,"count":22498,"max":[1,0.49984,0.234409,0.042512],"min":[0.402029,0,0,0],"normalized":false,"type":"VEC4"},{"bufferView":7,"byteOffset":0,"componentType":5125,"count":101268,"max":[17307],"min":[0],"normalized":false,"type":"SCALAR"}],"asset":{"generator":"Godot Engine v4.2.1.stable.arch_linux@unknown","version":"2.0"},"bufferViews":[{"buffer":0,"byteLength":1088,"byteOffset":0},{"buffer":0,"byteLength":269976,"byteOffset":1088},{"buffer":0,"byteLength":359968,"byteOffset":271064},{"buffer":0,"byteLength":269976,"byteOffset":631032},{"buffer":0,"byteLength":179984,"byteOffset":901008},{"buffer":0,"byteLength":179984,"byteOffset":1080992},{"buffer":0,"byteLength":359968,"byteOffset":1260976},{"buffer":0,"byteLength":405072,"byteOffset":1620944}],"buffers":[{"byteLength":2026016,"uri":"sandworm_20.bin"}],"extensions":{"OMI_collider":{"colliders":[{"height":1.39999997615814,"radius":0.140000000596046,"type":"capsule"},{"height":0.911072015762329,"radius":0.3004370033741,"type":"capsule"},{"height":1.29999995231628,"radius":0.495258986949921,"type":"capsule"},{"height":1.71505999565125,"radius":0.724492013454437,"type":"capsule"},{"height":2.19587993621826,"radius":0.916505992412567,"type":"capsule"},{"height":2.34683990478516,"radius":0.98887699842453,"type":"capsule"},{"height":2.18375992774963,"radius":0.927509009838104,"type":"capsule"},{"height":1.95814001560211,"radius":0.913339018821716,"type":"capsule"},{"height":2.04242992401123,"radius":0.952149987220764,"type":"capsule"},{"height":2.15301990509033,"radius":1.01077997684479,"type":"capsule"},{"height":2.31089997291565,"radius":0.99421101808548,"type":"capsule"},{"height":2.1796600818634,"radius":0.975676000118256,"type":"capsule"},{"height":1.93271994590759,"radius":0.930029988288879,"type":"capsule"},{"height":0.883176982402802,"radius":0.0883176997303963,"type":"capsule"}]}},"extensionsUsed":["GODOT_single_root","OMI_collider","OMI_physics_body"],"images":[{"uri":"textures%2Fbaked_albedo000.png"},{"uri":"textures%2Fbaked_orm000.png"}],"materials":[{"doubleSided":true,"extensions":{},"name":"baked","pbrMetallicRoughness":{"baseColorFactor":[0.99999988079071,0.99999988079071,0.99999988079071,1],"baseColorTexture":{"index":0},"metallicFactor":0,"metallicRoughnessTexture":{"index":1},"roughnessFactor":1}}],"meshes":[{"extras":{"targetNames":[]},"primitives":[{"attributes":{"JOINTS_0":5,"NORMAL":3,"POSITION":1,"TANGENT":2,"TEXCOORD_0":4,"WEIGHTS_0":6},"indices":7,"material":0,"mode":4}]}],"nodes":[{"children":[1,18,19,21,23,25,27,29,31,33,35,37,39,41,43,45],"extensions":{"OMI_physics_body":{"type":"rigid"}},"name":"sandworm"},{"children":[2],"extensions":{},"name":"Bone_010","translation":[0,-9,0]},{"children":[3],"extensions":{},"name":"Bone_011","translation":[0,1.39999997615814,0]},{"children":[4],"extensions":{},"name":"Bone_012","translation":[0,0.800000011920929,0]},{"children":[5],"extensions":{},"name":"Bone_013","translation":[0,1.29999995231628,0]},{"children":[6],"extensions":{},"name":"Bone_014","translation":[0,1.60000002384186,0]},{"children":[7],"extensions":{},"name":"Bone_015","translation":[0,1.5,0]},{"children":[8],"extensions":{},"name":"Bone_016","translation":[0,1.79999995231628,0]},{"children":[9],"extensions":{},"name":"Bone_001","translation":[0,1.39999997615814,0]},{"children":[10],"extensions":{},"name":"Bone_002","translation":[0,1.20000004768372,0]},{"children":[11],"extensions":{},"name":"Bone_003","translation":[0,1.20000004768372,0]},{"children":[12],"extensions":{},"name":"Bone_004","translation":[0,1.20000004768372,0]},{"children":[13],"extensions":{},"name":"Bone_005","translation":[0,1.20000004768372,0]},{"children":[14],"extensions":{},"name":"Bone_006","translation":[0,1.20000004768372,0]},{"children":[15,16,17],"extensions":{},"name":"Bone_007","translation":[0,1.20000004768372,0]},{"extensions":{},"name":"Bone_008","translation":[0.5,0.700001001358032,0.200000002980232]},{"extensions":{},"name":"Bone_009","translation":[-0.0000000298023,0.700001001358032,-0.60000002384186]},{"extensions":{},"name":"Bone_017","translation":[-0.60000002384186,0.700001001358032,0.100000001490116]},{"extensions":{},"mesh":0,"name":"Cylinder_004","skin":0},{"children":[20],"extensions":{"OMI_physics_body":{"type":"static"}},"name":"Physical Bone Bone_010","rotation":[0.70710676908493,0,0,0.70710676908493],"translation":[0,-8.30000114440918,0]},{"extensions":{"OMI_collider":{"collider":0}},"name":"CollisionShape3D","rotation":[-0.70710676908493,0,0,0.70710676908493]},{"children":[22],"extensions":{"OMI_physics_body":{"type":"static"}},"name":"Physical Bone Bone_011","rotation":[0.70710676908493,0,0,0.70710676908493],"translation":[0,-7.19999980926514,0]},{"extensions":{"OMI_collider":{"collider":1}},"name":"CollisionShape3D2","rotation":[-0.70710676908493,0,0,0.70710676908493]},{"children":[24],"extensions":{"OMI_physics_body":{"type":"static"}},"name":"Physical Bone Bone_012","rotation":[0.70710676908493,0,0,0.70710676908493],"translation":[0,-6.15000057220459,0]},{"extensions":{"OMI_collider":{"collider":2}},"name":"CollisionShape3D3","rotation":[-0.70710676908493,0,0,0.70710676908493]},{"children":[26],"extensions":{"OMI_physics_body":{"type":"static"}},"name":"Physical Bone Bone_013","rotation":[0.70710676908493,0,0,0.70710676908493],"translation":[0,-4.69999980926514,0]},{"extensions":{"OMI_collider":{"collider":3}},"name":"CollisionShape3D4","rotation":[-0.70710676908493,0,0,0.70710676908493]},{"children":[28],"extensions":{"OMI_physics_body":{"type":"static"}},"name":"Physical Bone Bone_014","rotation":[0.70710676908493,0.0000000841667642248467,-0.00000008416676,0.70710676908493],"translation":[0,-3.15000009536743,0]},{"extensions":{"OMI_collider":{"collider":4}},"name":"CollisionShape3D5","rotation":[-0.70710676908493,0,0,0.70710676908493]},{"children":[30],"extensions":{"OMI_physics_body":{"type":"static"}},"name":"Physical Bone Bone_015","rotation":[0.70710676908493,0,0,0.70710676908493],"translation":[0,-1.50000011920929,0]},{"extensions":{"OMI_collider":{"collider":5}},"name":"CollisionShape3D6","rotation":[-0.70710676908493,0,0,0.70710676908493]},{"children":[32],"extensions":{"OMI_physics_body":{"type":"static"}},"name":"Physical Bone Bone_016","rotation":[0.70710676908493,0,0,0.70710676908493],"translation":[0,0.0999998450279236,0]},{"extensions":{"OMI_collider":{"collider":6}},"name":"CollisionShape3D7","rotation":[-0.70710676908493,0,0,0.70710676908493]},{"children":[34],"extensions":{"OMI_physics_body":{"type":"static"}},"name":"Physical Bone Bone_001","rotation":[0.70710676908493,0,0,0.70710676908493],"translation":[0,1.39999985694885,0]},{"extensions":{"OMI_collider":{"collider":7}},"name":"CollisionShape3D8","rotation":[-0.70710676908493,0,0,0.70710676908493]},{"children":[36],"extensions":{"OMI_physics_body":{"type":"static"}},"name":"Physical Bone Bone_002","rotation":[0.70710676908493,0,0,0.70710676908493],"translation":[0,2.59999990463257,0]},{"extensions":{"OMI_collider":{"collider":8}},"name":"CollisionShape3D9","rotation":[-0.70710676908493,0,0,0.70710676908493]},{"children":[38],"extensions":{"OMI_physics_body":{"type":"static"}},"name":"Physical Bone Bone_003","rotation":[0.70710676908493,0,0,0.70710676908493],"translation":[0,3.79999971389771,0]},{"extensions":{"OMI_collider":{"collider":9}},"name":"CollisionShape3D10","rotation":[-0.70710676908493,0,0,0.70710676908493]},{"children":[40],"extensions":{"OMI_physics_body":{"type":"static"}},"name":"Physical Bone Bone_004","rotation":[0.70710676908493,0,0,0.70710676908493],"translation":[0,4.99999952316284,0]},{"extensions":{"OMI_collider":{"collider":10}},"name":"CollisionShape3D11","rotation":[-0.70710676908493,0,0,0.70710676908493]},{"children":[42],"extensions":{"OMI_physics_body":{"type":"static"}},"name":"Physical Bone Bone_005","rotation":[0.70710676908493,0,0,0.70710676908493],"translation":[0,6.19999933242798,0]},{"extensions":{"OMI_collider":{"collider":11}},"name":"CollisionShape3D12","rotation":[-0.70710676908493,0,0,0.70710676908493]},{"children":[44],"extensions":{"OMI_physics_body":{"type":"static"}},"name":"Physical Bone Bone_006","rotation":[0.70710676908493,0,0,0.70710676908493],"translation":[0,7.39999914169312,0]},{"extensions":{"OMI_collider":{"collider":12}},"name":"CollisionShape3D13","rotation":[-0.70710676908493,0,0,0.70710676908493]},{"children":[46],"extensions":{"OMI_physics_body":{"type":"static"}},"name":"Physical Bone Bone_007","rotation":[0.247646495699883,-0.74289894104004,0.365782111883163,0.502967000007629],"translation":[0.25,8.35000038146973,0.100000001490116]},{"extensions":{"OMI_collider":{"collider":13}},"name":"CollisionShape3D14","rotation":[-0.70710676908493,0,0,0.70710676908493]}],"samplers":[{"magFilter":9729,"minFilter":9987,"wrapS":10497,"wrapT":10497}],"scene":0,"scenes":[{"nodes":[0]}],"skins":[{"inverseBindMatrices":0,"joints":[1,2,3,4,5,6,7,8,9,10,11,12,13,14,15,16,17],"name":"Skin"}],"textures":[{"sampler":0,"source":0},{"sampler":0,"source":1}]}